<svg id="Layer_1" enable-background="new 0 0 256 256" height="512" viewBox="0 0 256 256" width="512" xmlns="http://www.w3.org/2000/svg"><path d="m174.667 126.408h-93.334c-3.223 0-6.01-1.867-7.338-4.579-.531 1.083-.829 2.301-.829 3.588 0 4.51 3.656 8.167 8.167 8.167h93.333c4.51 0 8.167-3.656 8.167-8.167 0-1.287-.298-2.505-.829-3.588-1.328 2.711-4.114 4.579-7.337 4.579z" fill="#ebe7f2"/><path d="m207.115 208.333h-158.23c6.812 7.765 16.808 12.667 27.948 12.667h102.333c11.141 0 21.137-4.902 27.949-12.667z" fill="#ebe7f2"/><path d="m48.885 159.333h158.23c-6.812-7.764-16.807-12.667-27.948-12.667h-102.334c-11.14.001-21.136 4.903-27.948 12.667z" fill="#ebe7f2"/><path d="m144.895 117.167h-33.79v-28.562c0-9.331 7.564-16.895 16.895-16.895 9.331 0 16.895 7.564 16.895 16.895z" fill="#ebe7f2"/><g fill="#846f75"><path d="m179.167 144.167h-102.334c-21.872 0-39.666 17.794-39.666 39.666s17.794 39.667 39.666 39.667h102.334c21.872 0 39.666-17.795 39.666-39.667s-17.794-39.666-39.666-39.666zm0 74.333h-102.334c-19.115 0-34.666-15.552-34.666-34.667s15.551-34.666 34.666-34.666h102.334c19.115 0 34.666 15.551 34.666 34.666s-15.551 34.667-34.666 34.667z"/><path d="m128 48.167c1.381 0 2.5-1.119 2.5-2.5v-10.667c0-1.381-1.119-2.5-2.5-2.5s-2.5 1.119-2.5 2.5v10.667c0 1.381 1.119 2.5 2.5 2.5z"/><path d="m170 90.167h10.667c1.381 0 2.5-1.119 2.5-2.5s-1.119-2.5-2.5-2.5h-10.667c-1.381 0-2.5 1.119-2.5 2.5s1.119 2.5 2.5 2.5z"/><path d="m75.333 90.167h10.667c1.381 0 2.5-1.119 2.5-2.5s-1.119-2.5-2.5-2.5h-10.667c-1.381 0-2.5 1.119-2.5 2.5s1.119 2.5 2.5 2.5z"/><path d="m157.698 60.468c.64 0 1.279-.244 1.768-.732l7.543-7.542c.977-.976.977-2.559 0-3.535s-2.559-.977-3.535 0l-7.543 7.542c-.977.976-.977 2.559 0 3.535.488.488 1.128.732 1.767.732z"/><path d="m96.534 59.735c.488.488 1.128.732 1.768.732s1.279-.244 1.768-.732c.977-.977.977-2.56 0-3.535l-7.543-7.542c-.977-.977-2.559-.977-3.535 0s-.977 2.56 0 3.535z"/><path d="m59.5 144.25c1.381 0 2.5-1.119 2.5-2.5v-13.833c2.572-.001 6.529-.001 8.975 0 1.13 4.677 5.339 8.167 10.358 8.167h93.334c5.019 0 9.229-3.49 10.358-8.167h8.975v13.833c0 1.381 1.119 2.5 2.5 2.5s2.5-1.119 2.5-2.5v-16.333c0-1.381-1.119-2.5-2.5-2.5h-11.475c-1.13-4.677-5.339-8.167-10.358-8.167h-13.917v-27.414c0-18.059-14.691-32.75-32.75-32.75s-32.75 14.691-32.75 32.75v27.414h-13.917c-5.019 0-9.228 3.49-10.358 8.167h-11.475c-1.381 0-2.5 1.119-2.5 2.5v16.333c0 1.381 1.119 2.5 2.5 2.5zm40.75-56.914c0-15.302 12.448-27.75 27.75-27.75s27.75 12.448 27.75 27.75v27.331h-55.5zm-18.917 32.414h93.334c3.124 0 5.666 2.542 5.666 5.667 0 3.124-2.542 5.666-5.666 5.666h-93.334c-3.124 0-5.666-2.542-5.666-5.666 0-3.125 2.542-5.667 5.666-5.667z"/></g><path d="m81.721 168.391h-3.375c-.552 0-1 .448-1 1v28.884c0 .552.448 1 1 1h17.144c.552 0 1-.448 1-1v-2.991c0-.552-.448-1-1-1h-11.77c-.552 0-1-.448-1-1v-23.893c.001-.552-.447-1-.999-1z" fill="#a58bc9"/><path d="m118.394 169.791c-1.876-1.183-4.056-1.782-6.479-1.782-2.426 0-4.611.611-6.495 1.816-1.886 1.205-3.357 2.94-4.376 5.157-.987 2.148-1.487 4.631-1.487 7.377v2.872c0 4.31 1.134 7.812 3.37 10.41 2.293 2.665 5.33 4.017 9.027 4.017 2.437 0 4.627-.607 6.512-1.805 1.888-1.2 3.354-2.924 4.36-5.123.974-2.128 1.467-4.612 1.467-7.384v-3.354c-.041-2.694-.56-5.112-1.542-7.188-1.015-2.144-2.48-3.831-4.357-5.013zm-6.44 24.818c-2.167 0-3.824-.763-5.067-2.333-1.311-1.654-1.975-3.985-1.975-6.93v-2.911c0-3.055.665-5.428 1.976-7.054 1.25-1.551 2.895-2.305 5.027-2.305 2.183 0 3.841.749 5.071 2.29 1.295 1.621 1.951 3.96 1.951 6.953v2.949c0 3.05-.646 5.423-1.922 7.052-1.203 1.541-2.86 2.289-5.061 2.289z" fill="#a58bc9"/><path d="m147.662 183.324c-1.411-.803-3.385-1.545-6.034-2.271-2.296-.627-3.952-1.333-4.926-2.101-.772-.607-1.132-1.336-1.132-2.293 0-1.061.412-1.865 1.299-2.533.991-.748 2.401-1.127 4.19-1.127 1.832 0 3.223.444 4.251 1.36.976.868 1.45 2.006 1.45 3.479v.5c0 .552.448 1 1 1h3.375c.552 0 1-.448 1-1v-.5c0-1.85-.483-3.556-1.438-5.07-.952-1.511-2.301-2.7-4.009-3.535-1.662-.812-3.556-1.225-5.629-1.225-3.055 0-5.624.776-7.64 2.308-2.14 1.627-3.225 3.778-3.225 6.393 0 2.698 1.164 4.9 3.456 6.541 1.485 1.071 3.707 2.013 6.792 2.88 3.326.936 4.774 1.754 5.404 2.276.74.614 1.085 1.413 1.085 2.513s-.431 1.926-1.355 2.599c-1.048.763-2.509 1.149-4.345 1.149-2.087 0-3.75-.468-4.942-1.392-1.105-.854-1.62-1.956-1.62-3.467v-.5c0-.552-.448-1-1-1h-3.355c-.552 0-1 .448-1 1v.5c0 1.931.515 3.675 1.528 5.184 1.009 1.503 2.485 2.678 4.39 3.492 1.822.779 3.841 1.174 6 1.174 4.92 0 8.524-1.833 10.552-5.416.052-.091.092-.194.118-.296.742-2.954.46-5.506-.807-7.491-.78-1.224-1.935-2.277-3.433-3.131z" fill="#a58bc9"/><path d="m163.659 193.284v-6.376c0-.552.448-1 1-1h11.042c.552 0 1-.448 1-1v-2.992c0-.552-.448-1-1-1h-11.042c-.552 0-1-.448-1-1v-5.532c0-.552.448-1 1-1h12.899c.552 0 1-.448 1-1v-2.992c0-.552-.448-1-1-1h-18.255c-.552 0-1 .448-1 1v28.884c0 .552.448 1 1 1h18.351c.552 0 1-.448 1-1v-2.991c0-.552-.448-1-1-1h-12.995c-.552-.001-1-.449-1-1.001z" fill="#a58bc9"/></svg>